<?xml version="1.0" encoding="utf-8"?>
<!-- Generator: Adobe Illustrator 12.0.1, SVG Export Plug-In  -->
<!DOCTYPE svg PUBLIC "-//W3C//DTD SVG 1.1//EN" "http://www.w3.org/Graphics/SVG/1.1/DTD/svg11.dtd" [
	<!ENTITY ns_flows "http://ns.adobe.com/Flows/1.0/">
	<!ENTITY ns_svg "http://www.w3.org/2000/svg">
	<!ENTITY ns_xlink "http://www.w3.org/1999/xlink">
]>
<svg  version="1.1" xmlns="&ns_svg;" xmlns:xlink="&ns_xlink;" xmlns:a="http://ns.adobe.com/AdobeSVGViewerExtensions/3.0/"
	 width="16" height="16" viewBox="0 -0.258 16 16" enable-background="new 0 -0.258 16 16" xml:space="preserve">
<defs>
</defs>
<g>
	<defs>
		<circle id="XMLID_1_" cx="7.859" cy="7.858" r="7.484"/>
	</defs>
	<clipPath id="XMLID_5_">
		<use xlink:href="#XMLID_1_" />
	</clipPath>
	<polygon clip-path="url(#XMLID_5_)" fill="#FAFAFA" points="0.375,15.133 0.566,15.344 0.375,15.344 	"/>
	<polygon clip-path="url(#XMLID_5_)" fill="#F8F8F8" points="0.375,14.555 1.094,15.344 0.566,15.344 0.375,15.133 	"/>
	<polygon clip-path="url(#XMLID_5_)" fill="#F7F6F6" points="0.375,13.98 1.617,15.344 1.094,15.344 0.375,14.555 	"/>
	<polygon clip-path="url(#XMLID_5_)" fill="#F6F5F4" points="0.375,13.402 2.145,15.344 1.617,15.344 0.375,13.98 	"/>
	<polygon clip-path="url(#XMLID_5_)" fill="#F5F4F3" points="0.375,12.828 2.672,15.344 2.145,15.344 0.375,13.402 	"/>
	<polygon clip-path="url(#XMLID_5_)" fill="#F4F3F2" points="0.375,12.25 3.195,15.344 2.672,15.344 0.375,12.828 	"/>
	<polygon clip-path="url(#XMLID_5_)" fill="#F3F2F1" points="0.375,11.672 3.723,15.344 3.195,15.344 0.375,12.25 	"/>
	<polygon clip-path="url(#XMLID_5_)" fill="#F2F1F0" points="0.375,11.094 4.25,15.344 3.723,15.344 0.375,11.672 	"/>
	<polygon clip-path="url(#XMLID_5_)" fill="#F1EFEF" points="0.375,10.52 4.777,15.344 4.25,15.344 0.375,11.094 	"/>
	<polygon clip-path="url(#XMLID_5_)" fill="#F0EEEE" points="0.375,9.941 5.305,15.344 4.777,15.344 0.375,10.52 	"/>
	<polygon clip-path="url(#XMLID_5_)" fill="#EFEEED" points="0.375,9.363 5.828,15.344 5.305,15.344 0.375,9.941 	"/>
	<polygon clip-path="url(#XMLID_5_)" fill="#EEEDEB" points="0.375,8.785 6.355,15.344 5.828,15.344 0.375,9.363 	"/>
	<polygon clip-path="url(#XMLID_5_)" fill="#EDEBEB" points="0.375,8.211 6.883,15.344 6.355,15.344 0.375,8.785 	"/>
	<polygon clip-path="url(#XMLID_5_)" fill="#ECEAEA" points="0.375,7.633 7.41,15.344 6.883,15.344 0.375,8.211 	"/>
	<polygon clip-path="url(#XMLID_5_)" fill="#EBE9E8" points="0.375,7.055 7.934,15.344 7.41,15.344 0.375,7.633 	"/>
	<polygon clip-path="url(#XMLID_5_)" fill="#EAE9E8" points="0.375,6.48 8.461,15.344 7.934,15.344 0.375,7.055 	"/>
	<polygon clip-path="url(#XMLID_5_)" fill="#E7E6E5" points="0.375,5.902 8.988,15.344 8.461,15.344 0.375,6.48 	"/>
	<polygon clip-path="url(#XMLID_5_)" fill="#E6E5E5" points="0.375,5.324 9.516,15.344 8.988,15.344 0.375,5.902 	"/>
	<polygon clip-path="url(#XMLID_5_)" fill="#E5E4E3" points="0.375,4.75 10.039,15.344 9.516,15.344 0.375,5.324 	"/>
	<polygon clip-path="url(#XMLID_5_)" fill="#E4E3E2" points="0.375,4.172 10.566,15.344 10.039,15.344 0.375,4.75 	"/>
	<polygon clip-path="url(#XMLID_5_)" fill="#E3E2E2" points="0.375,3.594 11.094,15.344 10.566,15.344 0.375,4.172 	"/>
	<polygon clip-path="url(#XMLID_5_)" fill="#E2E1E0" points="0.375,3.016 11.617,15.344 11.094,15.344 0.375,3.594 	"/>
	<polygon clip-path="url(#XMLID_5_)" fill="#E1E0DF" points="0.375,2.438 12.145,15.344 11.617,15.344 0.375,3.016 	"/>
	<polygon clip-path="url(#XMLID_5_)" fill="#E0DFDF" points="0.375,1.863 12.672,15.344 12.145,15.344 0.375,2.438 	"/>
	<polygon clip-path="url(#XMLID_5_)" fill="#DFDEDE" points="0.375,1.289 13.199,15.344 12.672,15.344 0.375,1.863 	"/>
	<polygon clip-path="url(#XMLID_5_)" fill="#DEDDDC" points="0.375,0.727 0.383,0.719 13.727,15.344 13.199,15.344 0.375,1.289 	"/>
	<polygon clip-path="url(#XMLID_5_)" fill="#DDDCDC" points="0.383,0.719 0.672,0.457 14.25,15.344 13.727,15.344 	"/>
	<polygon clip-path="url(#XMLID_5_)" fill="#DCDBDA" points="0.672,0.457 0.758,0.375 1.125,0.375 14.777,15.344 14.25,15.344 	"/>
	<polygon clip-path="url(#XMLID_5_)" fill="#DBDADA" points="1.648,0.375 15.148,15.172 14.961,15.344 14.777,15.344 1.125,0.375 	
		"/>
	<polygon clip-path="url(#XMLID_5_)" fill="#DBD9D9" points="2.176,0.375 15.344,14.809 15.344,14.992 15.148,15.172 1.648,0.375 	
		"/>
	<polygon clip-path="url(#XMLID_5_)" fill="#DAD8D8" points="2.703,0.375 15.344,14.234 15.344,14.809 2.176,0.375 	"/>
	<polygon clip-path="url(#XMLID_5_)" fill="#D9D8D7" points="3.227,0.375 15.344,13.656 15.344,14.234 2.703,0.375 	"/>
	<polygon clip-path="url(#XMLID_5_)" fill="#D8D7D6" points="3.754,0.375 15.344,13.078 15.344,13.656 3.227,0.375 	"/>
	<polygon clip-path="url(#XMLID_5_)" fill="#D7D5D5" points="4.281,0.375 15.344,12.5 15.344,13.078 3.754,0.375 	"/>
	<polygon clip-path="url(#XMLID_5_)" fill="#D6D5D4" points="4.809,0.375 15.344,11.926 15.344,12.5 4.281,0.375 	"/>
	<polygon clip-path="url(#XMLID_5_)" fill="#D5D3D3" points="5.336,0.375 15.344,11.348 15.344,11.926 4.809,0.375 	"/>
	<polygon clip-path="url(#XMLID_5_)" fill="#D4D3D2" points="5.859,0.375 15.344,10.77 15.344,11.348 5.336,0.375 	"/>
	<polygon clip-path="url(#XMLID_5_)" fill="#D3D2D1" points="6.387,0.375 15.344,10.195 15.344,10.77 5.859,0.375 	"/>
	<polygon clip-path="url(#XMLID_5_)" fill="#D2D1D0" points="6.914,0.375 15.344,9.617 15.344,10.195 6.387,0.375 	"/>
	<polygon clip-path="url(#XMLID_5_)" fill="#D2D0CF" points="7.438,0.375 15.344,9.039 15.344,9.617 6.914,0.375 	"/>
	<polygon clip-path="url(#XMLID_5_)" fill="#D1CFCF" points="7.965,0.375 15.344,8.461 15.344,9.039 7.438,0.375 	"/>
	<polygon clip-path="url(#XMLID_5_)" fill="#D0CFCE" points="8.492,0.375 15.344,7.887 15.344,8.461 7.965,0.375 	"/>
	<polygon clip-path="url(#XMLID_5_)" fill="#CFCECD" points="9.02,0.375 15.344,7.309 15.344,7.887 8.492,0.375 	"/>
	<polygon clip-path="url(#XMLID_5_)" fill="#CECDCC" points="9.547,0.375 15.344,6.73 15.344,7.309 9.02,0.375 	"/>
	<polygon clip-path="url(#XMLID_5_)" fill="#CDCCCB" points="10.07,0.375 15.344,6.156 15.344,6.73 9.547,0.375 	"/>
	<polygon clip-path="url(#XMLID_5_)" fill="#CCCBCA" points="10.598,0.375 15.344,5.578 15.344,6.156 10.07,0.375 	"/>
	<polygon clip-path="url(#XMLID_5_)" fill="#CBCACA" points="11.125,0.375 15.344,5 15.344,5.578 10.598,0.375 	"/>
	<polygon clip-path="url(#XMLID_5_)" fill="#CAC9C9" points="11.648,0.375 15.344,4.422 15.344,5 11.125,0.375 	"/>
	<polygon clip-path="url(#XMLID_5_)" fill="#CAC8C8" points="12.176,0.375 15.344,3.848 15.344,4.422 11.648,0.375 	"/>
	<polygon clip-path="url(#XMLID_5_)" fill="#C9C7C7" points="12.703,0.375 15.344,3.27 15.344,3.848 12.176,0.375 	"/>
	<polygon clip-path="url(#XMLID_5_)" fill="#C8C6C6" points="13.23,0.375 15.344,2.691 15.344,3.27 12.703,0.375 	"/>
	<polygon clip-path="url(#XMLID_5_)" fill="#C7C6C6" points="13.758,0.375 15.344,2.117 15.344,2.691 13.23,0.375 	"/>
	<polygon clip-path="url(#XMLID_5_)" fill="#C5C4C3" points="14.281,0.375 15.344,1.539 15.344,2.117 13.758,0.375 	"/>
	<polygon clip-path="url(#XMLID_5_)" fill="#C4C3C2" points="14.809,0.375 15.344,0.961 15.344,1.539 14.281,0.375 	"/>
	<polygon clip-path="url(#XMLID_5_)" fill="#C3C2C1" points="15.336,0.375 15.344,0.383 15.344,0.961 14.809,0.375 	"/>
	<polygon clip-path="url(#XMLID_5_)" fill="#C2C1C0" points="15.344,0.383 15.336,0.375 15.344,0.375 	"/>
</g>
<path fill="#AEADAE" d="M14.969,7.858c0,3.92-3.189,7.109-7.109,7.109S0.75,11.778,0.75,7.858S3.939,0.75,7.859,0.75
	S14.969,3.938,14.969,7.858z M7.859,0C3.525,0,0,3.525,0,7.858c0,4.334,3.525,7.859,7.859,7.859s7.859-3.525,7.859-7.859
	C15.719,3.525,12.193,0,7.859,0z"/>
<path fill="#010101" d="M5.208,4.142v7.601H4.163V6.341H2.414V5.582c0.484-0.011,1.716-0.044,1.991-1.44H5.208z"/>
<path fill="#010101" d="M10.455,11.819c-0.627,0-1.562-0.144-2.211-1.199C7.76,9.817,7.683,8.783,7.683,7.958
	c0-0.495,0.022-0.968,0.11-1.43c0.341-1.87,1.518-2.563,2.739-2.563c0.429,0,0.857,0.089,1.231,0.275
	c1.122,0.605,1.485,1.947,1.485,3.575C13.249,8.541,13.249,11.819,10.455,11.819z M12.182,7.771c0-0.814-0.044-2.959-1.683-2.959
	c-0.297,0-0.594,0.088-0.825,0.242C8.948,5.549,8.75,6.649,8.75,7.925c0,0.804,0.044,3.025,1.727,3.025
	C12.028,10.95,12.182,9.091,12.182,7.771z"/>
</svg>
