<?xml version="1.0" encoding="utf-8"?>
<!-- Generator: Adobe Illustrator 12.0.1, SVG Export Plug-In  -->
<!DOCTYPE svg PUBLIC "-//W3C//DTD SVG 1.1//EN" "http://www.w3.org/Graphics/SVG/1.1/DTD/svg11.dtd" [
	<!ENTITY ns_flows "http://ns.adobe.com/Flows/1.0/">
	<!ENTITY ns_svg "http://www.w3.org/2000/svg">
	<!ENTITY ns_xlink "http://www.w3.org/1999/xlink">
]>
<svg  version="1.1" xmlns="&ns_svg;" xmlns:xlink="&ns_xlink;" xmlns:a="http://ns.adobe.com/AdobeSVGViewerExtensions/3.0/"
	 width="16" height="17" viewBox="0 -0.657 16 17" enable-background="new 0 -0.657 16 17" xml:space="preserve">
<defs>
</defs>
<g>
	<defs>
		<circle id="XMLID_1_" cx="7.859" cy="7.859" r="7.484"/>
	</defs>
	<clipPath id="XMLID_5_">
		<use xlink:href="#XMLID_1_" />
	</clipPath>
	<polygon clip-path="url(#XMLID_5_)" fill="#FAFAFA" points="0.375,15.132 0.566,15.343 0.375,15.343 	"/>
	<polygon clip-path="url(#XMLID_5_)" fill="#F8F8F8" points="0.375,14.558 1.094,15.343 0.566,15.343 0.375,15.132 	"/>
	<polygon clip-path="url(#XMLID_5_)" fill="#F7F6F6" points="0.375,13.979 1.617,15.343 1.094,15.343 0.375,14.558 	"/>
	<polygon clip-path="url(#XMLID_5_)" fill="#F6F5F4" points="0.375,13.401 2.145,15.343 1.617,15.343 0.375,13.979 	"/>
	<polygon clip-path="url(#XMLID_5_)" fill="#F5F4F3" points="0.375,12.827 2.672,15.343 2.145,15.343 0.375,13.401 	"/>
	<polygon clip-path="url(#XMLID_5_)" fill="#F4F3F2" points="0.375,12.249 3.199,15.343 2.672,15.343 0.375,12.827 	"/>
	<polygon clip-path="url(#XMLID_5_)" fill="#F3F2F1" points="0.375,11.671 3.727,15.343 3.199,15.343 0.375,12.249 	"/>
	<polygon clip-path="url(#XMLID_5_)" fill="#F2F1F0" points="0.375,11.093 4.25,15.343 3.727,15.343 0.375,11.671 	"/>
	<polygon clip-path="url(#XMLID_5_)" fill="#F1EFEF" points="0.375,10.519 4.777,15.343 4.25,15.343 0.375,11.093 	"/>
	<polygon clip-path="url(#XMLID_5_)" fill="#F0EEEE" points="0.375,9.94 5.305,15.343 4.777,15.343 0.375,10.519 	"/>
	<polygon clip-path="url(#XMLID_5_)" fill="#EFEEED" points="0.375,9.362 5.828,15.343 5.305,15.343 0.375,9.94 	"/>
	<polygon clip-path="url(#XMLID_5_)" fill="#EEEDEB" points="0.375,8.788 6.355,15.343 5.828,15.343 0.375,9.362 	"/>
	<polygon clip-path="url(#XMLID_5_)" fill="#EDEBEB" points="0.375,8.21 6.883,15.343 6.355,15.343 0.375,8.788 	"/>
	<polygon clip-path="url(#XMLID_5_)" fill="#ECEAEA" points="0.375,7.632 7.41,15.343 6.883,15.343 0.375,8.21 	"/>
	<polygon clip-path="url(#XMLID_5_)" fill="#EBE9E8" points="0.375,7.054 7.938,15.343 7.41,15.343 0.375,7.632 	"/>
	<polygon clip-path="url(#XMLID_5_)" fill="#EAE9E8" points="0.375,6.479 8.461,15.343 7.938,15.343 0.375,7.054 	"/>
	<polygon clip-path="url(#XMLID_5_)" fill="#E7E6E5" points="0.375,5.901 8.988,15.343 8.461,15.343 0.375,6.479 	"/>
	<polygon clip-path="url(#XMLID_5_)" fill="#E6E5E5" points="0.375,5.327 9.516,15.343 8.988,15.343 0.375,5.901 	"/>
	<polygon clip-path="url(#XMLID_5_)" fill="#E5E4E3" points="0.375,4.749 10.039,15.343 9.516,15.343 0.375,5.327 	"/>
	<polygon clip-path="url(#XMLID_5_)" fill="#E4E3E2" points="0.375,4.171 10.566,15.343 10.039,15.343 0.375,4.749 	"/>
	<polygon clip-path="url(#XMLID_5_)" fill="#E3E2E2" points="0.375,3.593 11.094,15.343 10.566,15.343 0.375,4.171 	"/>
	<polygon clip-path="url(#XMLID_5_)" fill="#E2E1E0" points="0.375,3.015 11.621,15.343 11.094,15.343 0.375,3.593 	"/>
	<polygon clip-path="url(#XMLID_5_)" fill="#E1E0DF" points="0.375,2.44 12.148,15.343 11.621,15.343 0.375,3.015 	"/>
	<polygon clip-path="url(#XMLID_5_)" fill="#E0DFDF" points="0.375,1.862 12.672,15.343 12.148,15.343 0.375,2.44 	"/>
	<polygon clip-path="url(#XMLID_5_)" fill="#DFDEDE" points="0.375,1.288 13.199,15.343 12.672,15.343 0.375,1.862 	"/>
	<polygon clip-path="url(#XMLID_5_)" fill="#DEDDDC" points="0.375,0.726 0.383,0.718 13.727,15.343 13.199,15.343 0.375,1.288 	"/>
	<polygon clip-path="url(#XMLID_5_)" fill="#DDDCDC" points="0.383,0.718 0.672,0.456 14.254,15.343 13.727,15.343 	"/>
	<polygon clip-path="url(#XMLID_5_)" fill="#DCDBDA" points="0.672,0.456 0.758,0.374 1.125,0.374 14.777,15.343 14.254,15.343 	"/>
	<polygon clip-path="url(#XMLID_5_)" fill="#DBDADA" points="1.648,0.374 15.148,15.171 14.961,15.343 14.777,15.343 1.125,0.374 	
		"/>
	<polygon clip-path="url(#XMLID_5_)" fill="#DBD9D9" points="2.176,0.374 15.344,14.808 15.344,14.991 15.148,15.171 1.648,0.374 	
		"/>
	<polygon clip-path="url(#XMLID_5_)" fill="#DAD8D8" points="2.703,0.374 15.344,14.233 15.344,14.808 2.176,0.374 	"/>
	<polygon clip-path="url(#XMLID_5_)" fill="#D9D8D7" points="3.227,0.374 15.344,13.655 15.344,14.233 2.703,0.374 	"/>
	<polygon clip-path="url(#XMLID_5_)" fill="#D8D7D6" points="3.754,0.374 15.344,13.077 15.344,13.655 3.227,0.374 	"/>
	<polygon clip-path="url(#XMLID_5_)" fill="#D7D5D5" points="4.281,0.374 15.344,12.499 15.344,13.077 3.754,0.374 	"/>
	<polygon clip-path="url(#XMLID_5_)" fill="#D6D5D4" points="4.809,0.374 15.344,11.925 15.344,12.499 4.281,0.374 	"/>
	<polygon clip-path="url(#XMLID_5_)" fill="#D5D3D3" points="5.332,0.374 15.344,11.347 15.344,11.925 4.809,0.374 	"/>
	<polygon clip-path="url(#XMLID_5_)" fill="#D4D3D2" points="5.859,0.374 15.344,10.772 15.344,11.347 5.332,0.374 	"/>
	<polygon clip-path="url(#XMLID_5_)" fill="#D3D2D1" points="6.387,0.374 15.344,10.194 15.344,10.772 5.859,0.374 	"/>
	<polygon clip-path="url(#XMLID_5_)" fill="#D2D1D0" points="6.914,0.374 15.344,9.616 15.344,10.194 6.387,0.374 	"/>
	<polygon clip-path="url(#XMLID_5_)" fill="#D2D0CF" points="7.438,0.374 15.344,9.038 15.344,9.616 6.914,0.374 	"/>
	<polygon clip-path="url(#XMLID_5_)" fill="#D1CFCF" points="7.965,0.374 15.344,8.46 15.344,9.038 7.438,0.374 	"/>
	<polygon clip-path="url(#XMLID_5_)" fill="#D0CFCE" points="8.492,0.374 15.344,7.886 15.344,8.46 7.965,0.374 	"/>
	<polygon clip-path="url(#XMLID_5_)" fill="#CFCECD" points="9.02,0.374 15.344,7.308 15.344,7.886 8.492,0.374 	"/>
	<polygon clip-path="url(#XMLID_5_)" fill="#CECDCC" points="9.547,0.374 15.344,6.733 15.344,7.308 9.02,0.374 	"/>
	<polygon clip-path="url(#XMLID_5_)" fill="#CDCCCB" points="10.07,0.374 15.344,6.155 15.344,6.733 9.547,0.374 	"/>
	<polygon clip-path="url(#XMLID_5_)" fill="#CCCBCA" points="10.598,0.374 15.344,5.577 15.344,6.155 10.07,0.374 	"/>
	<polygon clip-path="url(#XMLID_5_)" fill="#CBCACA" points="11.125,0.374 15.344,4.999 15.344,5.577 10.598,0.374 	"/>
	<polygon clip-path="url(#XMLID_5_)" fill="#CAC9C9" points="11.648,0.374 15.344,4.425 15.344,4.999 11.125,0.374 	"/>
	<polygon clip-path="url(#XMLID_5_)" fill="#CAC8C8" points="12.176,0.374 15.344,3.847 15.344,4.425 11.648,0.374 	"/>
	<polygon clip-path="url(#XMLID_5_)" fill="#C9C7C7" points="12.703,0.374 15.344,3.269 15.344,3.847 12.176,0.374 	"/>
	<polygon clip-path="url(#XMLID_5_)" fill="#C8C6C6" points="13.23,0.374 15.344,2.694 15.344,3.269 12.703,0.374 	"/>
	<polygon clip-path="url(#XMLID_5_)" fill="#C7C6C6" points="13.758,0.374 15.344,2.116 15.344,2.694 13.23,0.374 	"/>
	<polygon clip-path="url(#XMLID_5_)" fill="#C5C4C3" points="14.281,0.374 15.344,1.538 15.344,2.116 13.758,0.374 	"/>
	<polygon clip-path="url(#XMLID_5_)" fill="#C4C3C2" points="14.809,0.374 15.344,0.96 15.344,1.538 14.281,0.374 	"/>
	<polygon clip-path="url(#XMLID_5_)" fill="#C3C2C1" points="15.336,0.374 15.344,0.386 15.344,0.96 14.809,0.374 	"/>
	<polygon clip-path="url(#XMLID_5_)" fill="#C2C1C0" points="15.344,0.386 15.336,0.374 15.344,0.374 	"/>
</g>
<path fill="#AEADAE" d="M14.969,7.859c0,3.92-3.189,7.108-7.109,7.108S0.75,11.779,0.75,7.859S3.939,0.75,7.859,0.75
	S14.969,3.939,14.969,7.859z M7.859,0C3.525,0,0,3.525,0,7.859c0,4.333,3.525,7.858,7.859,7.858s7.859-3.525,7.859-7.858
	C15.719,3.525,12.193,0,7.859,0z"/>
<path fill="#010101" d="M5.208,4.143v7.601H4.163V6.342H2.414V5.583c0.484-0.011,1.716-0.044,1.991-1.44H5.208z"/>
<path fill="#010101" d="M13.161,10.786v0.957H7.936v-1.056l0.177-0.154c0.253-0.231,0.506-0.462,0.759-0.682
	c0.264-0.242,0.55-0.474,0.813-0.704c1.441-1.222,2.189-1.893,2.189-2.882c0-0.275-0.099-1.31-1.397-1.31
	c-1.121,0-1.363,0.803-1.44,1.133C8.959,6.431,8.97,6.672,8.981,6.925L7.914,6.87c0-0.275,0-0.704,0.154-1.188
	c0.352-1.078,1.242-1.64,2.452-1.64c1.717,0,2.421,1.078,2.421,2.179c0,1.144-0.639,2.013-2.156,3.256
	c-0.265,0.209-0.518,0.418-0.781,0.627c-0.11,0.099-0.671,0.571-0.803,0.682H13.161z"/>
</svg>
