<?xml version="1.0" encoding="utf-8"?>
<!-- Generator: Adobe Illustrator 12.0.1, SVG Export Plug-In  -->
<!DOCTYPE svg PUBLIC "-//W3C//DTD SVG 1.1//EN" "http://www.w3.org/Graphics/SVG/1.1/DTD/svg11.dtd" [
	<!ENTITY ns_flows "http://ns.adobe.com/Flows/1.0/">
	<!ENTITY ns_svg "http://www.w3.org/2000/svg">
	<!ENTITY ns_xlink "http://www.w3.org/1999/xlink">
]>
<svg  version="1.1" xmlns="&ns_svg;" xmlns:xlink="&ns_xlink;" xmlns:a="http://ns.adobe.com/AdobeSVGViewerExtensions/3.0/"
	 width="16" height="16" viewBox="0 -0.058 16 16" enable-background="new 0 -0.058 16 16" xml:space="preserve">
<defs>
</defs>
<g>
	<defs>
		<circle id="XMLID_14_" cx="7.859" cy="7.858" r="7.484"/>
	</defs>
	<clipPath id="XMLID_17_">
		<use xlink:href="#XMLID_14_" />
	</clipPath>
	<polygon clip-path="url(#XMLID_17_)" fill="#FAFAFA" points="0.375,15.134 0.566,15.341 0.375,15.341 	"/>
	<polygon clip-path="url(#XMLID_17_)" fill="#F8F8F8" points="0.375,14.556 1.094,15.341 0.566,15.341 0.375,15.134 	"/>
	<polygon clip-path="url(#XMLID_17_)" fill="#F7F6F6" points="0.375,13.978 1.617,15.341 1.094,15.341 0.375,14.556 	"/>
	<polygon clip-path="url(#XMLID_17_)" fill="#F6F5F4" points="0.375,13.403 2.145,15.341 1.617,15.341 0.375,13.978 	"/>
	<polygon clip-path="url(#XMLID_17_)" fill="#F5F4F3" points="0.375,12.825 2.672,15.341 2.145,15.341 0.375,13.403 	"/>
	<polygon clip-path="url(#XMLID_17_)" fill="#F4F3F2" points="0.375,12.247 3.199,15.341 2.672,15.341 0.375,12.825 	"/>
	<polygon clip-path="url(#XMLID_17_)" fill="#F3F2F1" points="0.375,11.669 3.727,15.341 3.199,15.341 0.375,12.247 	"/>
	<polygon clip-path="url(#XMLID_17_)" fill="#F2F1F0" points="0.375,11.095 4.25,15.341 3.727,15.341 0.375,11.669 	"/>
	<polygon clip-path="url(#XMLID_17_)" fill="#F1EFEF" points="0.375,10.517 4.777,15.341 4.25,15.341 0.375,11.095 	"/>
	<polygon clip-path="url(#XMLID_17_)" fill="#F0EEEE" points="0.375,9.942 5.305,15.341 4.777,15.341 0.375,10.517 	"/>
	<polygon clip-path="url(#XMLID_17_)" fill="#EFEEED" points="0.375,9.364 5.828,15.341 5.305,15.341 0.375,9.942 	"/>
	<polygon clip-path="url(#XMLID_17_)" fill="#EEEDEB" points="0.375,8.786 6.355,15.341 5.828,15.341 0.375,9.364 	"/>
	<polygon clip-path="url(#XMLID_17_)" fill="#EDEBEB" points="0.375,8.208 6.883,15.341 6.355,15.341 0.375,8.786 	"/>
	<polygon clip-path="url(#XMLID_17_)" fill="#ECEAEA" points="0.375,7.634 7.41,15.341 6.883,15.341 0.375,8.208 	"/>
	<polygon clip-path="url(#XMLID_17_)" fill="#EBE9E8" points="0.375,7.056 7.938,15.341 7.41,15.341 0.375,7.634 	"/>
	<polygon clip-path="url(#XMLID_17_)" fill="#EAE9E8" points="0.375,6.478 8.461,15.341 7.938,15.341 0.375,7.056 	"/>
	<polygon clip-path="url(#XMLID_17_)" fill="#E7E6E5" points="0.375,5.903 8.988,15.341 8.461,15.341 0.375,6.478 	"/>
	<polygon clip-path="url(#XMLID_17_)" fill="#E6E5E5" points="0.375,5.325 9.516,15.341 8.988,15.341 0.375,5.903 	"/>
	<polygon clip-path="url(#XMLID_17_)" fill="#E5E4E3" points="0.375,4.747 10.039,15.341 9.516,15.341 0.375,5.325 	"/>
	<polygon clip-path="url(#XMLID_17_)" fill="#E4E3E2" points="0.375,4.169 10.566,15.341 10.039,15.341 0.375,4.747 	"/>
	<polygon clip-path="url(#XMLID_17_)" fill="#E3E2E2" points="0.375,3.595 11.094,15.341 10.566,15.341 0.375,4.169 	"/>
	<polygon clip-path="url(#XMLID_17_)" fill="#E2E1E0" points="0.375,3.017 11.621,15.341 11.094,15.341 0.375,3.595 	"/>
	<polygon clip-path="url(#XMLID_17_)" fill="#E1E0DF" points="0.375,2.438 12.148,15.341 11.621,15.341 0.375,3.017 	"/>
	<polygon clip-path="url(#XMLID_17_)" fill="#E0DFDF" points="0.375,1.864 12.672,15.341 12.148,15.341 0.375,2.438 	"/>
	<polygon clip-path="url(#XMLID_17_)" fill="#DFDEDE" points="0.375,1.286 13.199,15.341 12.672,15.341 0.375,1.864 	"/>
	<polygon clip-path="url(#XMLID_17_)" fill="#DEDDDC" points="0.375,0.724 0.383,0.716 13.727,15.341 13.199,15.341 0.375,1.286 	
		"/>
	<polygon clip-path="url(#XMLID_17_)" fill="#DDDCDC" points="0.383,0.716 0.672,0.458 14.254,15.341 13.727,15.341 	"/>
	<polygon clip-path="url(#XMLID_17_)" fill="#DCDBDA" points="0.672,0.458 0.758,0.376 1.125,0.376 14.777,15.341 14.254,15.341 	
		"/>
	<polygon clip-path="url(#XMLID_17_)" fill="#DBDADA" points="1.648,0.376 15.148,15.173 14.961,15.341 14.777,15.341 1.125,0.376 	
		"/>
	<polygon clip-path="url(#XMLID_17_)" fill="#DBD9D9" points="2.176,0.376 15.344,14.81 15.344,14.997 15.148,15.173 1.648,0.376 	
		"/>
	<polygon clip-path="url(#XMLID_17_)" fill="#DAD8D8" points="2.703,0.376 15.344,14.231 15.344,14.81 2.176,0.376 	"/>
	<polygon clip-path="url(#XMLID_17_)" fill="#D9D8D7" points="3.23,0.376 15.344,13.653 15.344,14.231 2.703,0.376 	"/>
	<polygon clip-path="url(#XMLID_17_)" fill="#D8D7D6" points="3.754,0.376 15.344,13.075 15.344,13.653 3.23,0.376 	"/>
	<polygon clip-path="url(#XMLID_17_)" fill="#D7D5D5" points="4.281,0.376 15.344,12.501 15.344,13.075 3.754,0.376 	"/>
	<polygon clip-path="url(#XMLID_17_)" fill="#D6D5D4" points="4.809,0.376 15.344,11.923 15.344,12.501 4.281,0.376 	"/>
	<polygon clip-path="url(#XMLID_17_)" fill="#D5D3D3" points="5.336,0.376 15.344,11.349 15.344,11.923 4.809,0.376 	"/>
	<polygon clip-path="url(#XMLID_17_)" fill="#D4D3D2" points="5.859,0.376 15.344,10.771 15.344,11.349 5.336,0.376 	"/>
	<polygon clip-path="url(#XMLID_17_)" fill="#D3D2D1" points="6.387,0.376 15.344,10.192 15.344,10.771 5.859,0.376 	"/>
	<polygon clip-path="url(#XMLID_17_)" fill="#D2D1D0" points="6.914,0.376 15.344,9.614 15.344,10.192 6.387,0.376 	"/>
	<polygon clip-path="url(#XMLID_17_)" fill="#D2D0CF" points="7.438,0.376 15.344,9.04 15.344,9.614 6.914,0.376 	"/>
	<polygon clip-path="url(#XMLID_17_)" fill="#D1CFCF" points="7.965,0.376 15.344,8.462 15.344,9.04 7.438,0.376 	"/>
	<polygon clip-path="url(#XMLID_17_)" fill="#D0CFCE" points="8.492,0.376 15.344,7.884 15.344,8.462 7.965,0.376 	"/>
	<polygon clip-path="url(#XMLID_17_)" fill="#CFCECD" points="9.02,0.376 15.344,7.31 15.344,7.884 8.492,0.376 	"/>
	<polygon clip-path="url(#XMLID_17_)" fill="#CECDCC" points="9.547,0.376 15.344,6.731 15.344,7.31 9.02,0.376 	"/>
	<polygon clip-path="url(#XMLID_17_)" fill="#CDCCCB" points="10.07,0.376 15.344,6.153 15.344,6.731 9.547,0.376 	"/>
	<polygon clip-path="url(#XMLID_17_)" fill="#CCCBCA" points="10.598,0.376 15.344,5.575 15.344,6.153 10.07,0.376 	"/>
	<polygon clip-path="url(#XMLID_17_)" fill="#CBCACA" points="11.125,0.376 15.344,5.001 15.344,5.575 10.598,0.376 	"/>
	<polygon clip-path="url(#XMLID_17_)" fill="#CAC9C9" points="11.652,0.376 15.344,4.423 15.344,5.001 11.125,0.376 	"/>
	<polygon clip-path="url(#XMLID_17_)" fill="#CAC8C8" points="12.176,0.376 15.344,3.845 15.344,4.423 11.652,0.376 	"/>
	<polygon clip-path="url(#XMLID_17_)" fill="#C9C7C7" points="12.703,0.376 15.344,3.271 15.344,3.845 12.176,0.376 	"/>
	<polygon clip-path="url(#XMLID_17_)" fill="#C8C6C6" points="13.23,0.376 15.344,2.692 15.344,3.271 12.703,0.376 	"/>
	<polygon clip-path="url(#XMLID_17_)" fill="#C7C6C6" points="13.758,0.376 15.344,2.114 15.344,2.692 13.23,0.376 	"/>
	<polygon clip-path="url(#XMLID_17_)" fill="#C5C4C3" points="14.281,0.376 15.344,1.536 15.344,2.114 13.758,0.376 	"/>
	<polygon clip-path="url(#XMLID_17_)" fill="#C4C3C2" points="14.809,0.376 15.344,0.962 15.344,1.536 14.281,0.376 	"/>
	<polygon clip-path="url(#XMLID_17_)" fill="#C3C2C1" points="15.336,0.376 15.344,0.384 15.344,0.962 14.809,0.376 	"/>
	<polygon clip-path="url(#XMLID_17_)" fill="#C2C1C0" points="15.344,0.384 15.336,0.376 15.344,0.376 	"/>
</g>
<path fill="#AEADAE" d="M14.969,7.858c0,3.92-3.189,7.109-7.109,7.109S0.75,11.778,0.75,7.858S3.939,0.75,7.859,0.75
	S14.969,3.938,14.969,7.858z M7.859,0C3.525,0,0,3.525,0,7.858c0,4.334,3.525,7.859,7.859,7.859s7.859-3.525,7.859-7.859
	C15.719,3.525,12.193,0,7.859,0z"/>
<path fill="#010101" d="M5.208,4.142v7.601H4.163V6.341H2.414V5.582c0.484-0.011,1.716-0.044,1.991-1.44H5.208z"/>
<path fill="#010101" d="M11.962,9.103h1.144v0.891h-1.144v1.749h-1.022V9.993H7.617V8.938l3.531-4.808h0.813V9.103z M10.939,9.103
	l0.065-3.433L8.607,9.103H10.939z"/>
</svg>
