<?xml version="1.0" encoding="utf-8"?>
<!-- Generator: Adobe Illustrator 12.0.1, SVG Export Plug-In  -->
<!DOCTYPE svg PUBLIC "-//W3C//DTD SVG 1.1//EN" "http://www.w3.org/Graphics/SVG/1.1/DTD/svg11.dtd" [
	<!ENTITY ns_flows "http://ns.adobe.com/Flows/1.0/">
	<!ENTITY ns_svg "http://www.w3.org/2000/svg">
	<!ENTITY ns_xlink "http://www.w3.org/1999/xlink">
]>
<svg  version="1.1" xmlns="&ns_svg;" xmlns:xlink="&ns_xlink;" xmlns:a="http://ns.adobe.com/AdobeSVGViewerExtensions/3.0/"
	 width="16" height="16" viewBox="0 -0.157 16 16" enable-background="new 0 -0.157 16 16" xml:space="preserve">
<defs>
</defs>
<g>
	<defs>
		<circle id="XMLID_6_" cx="7.86" cy="7.859" r="7.485"/>
	</defs>
	<clipPath id="XMLID_9_">
		<use xlink:href="#XMLID_6_" />
	</clipPath>
	<polygon clip-path="url(#XMLID_9_)" fill="#FAFAFA" points="0.375,15.132 0.566,15.343 0.375,15.343 	"/>
	<polygon clip-path="url(#XMLID_9_)" fill="#F8F8F8" points="0.375,14.558 1.094,15.343 0.566,15.343 0.375,15.132 	"/>
	<polygon clip-path="url(#XMLID_9_)" fill="#F7F6F6" points="0.375,13.979 1.617,15.343 1.094,15.343 0.375,14.558 	"/>
	<polygon clip-path="url(#XMLID_9_)" fill="#F6F5F4" points="0.375,13.401 2.145,15.343 1.617,15.343 0.375,13.979 	"/>
	<polygon clip-path="url(#XMLID_9_)" fill="#F5F4F3" points="0.375,12.827 2.672,15.343 2.145,15.343 0.375,13.401 	"/>
	<polygon clip-path="url(#XMLID_9_)" fill="#F4F3F2" points="0.375,12.249 3.199,15.343 2.672,15.343 0.375,12.827 	"/>
	<polygon clip-path="url(#XMLID_9_)" fill="#F3F2F1" points="0.375,11.671 3.727,15.343 3.199,15.343 0.375,12.249 	"/>
	<polygon clip-path="url(#XMLID_9_)" fill="#F2F1F0" points="0.375,11.093 4.25,15.343 3.727,15.343 0.375,11.671 	"/>
	<polygon clip-path="url(#XMLID_9_)" fill="#F1EFEF" points="0.375,10.519 4.777,15.343 4.25,15.343 0.375,11.093 	"/>
	<polygon clip-path="url(#XMLID_9_)" fill="#F0EEEE" points="0.375,9.94 5.305,15.343 4.777,15.343 0.375,10.519 	"/>
	<polygon clip-path="url(#XMLID_9_)" fill="#EFEEED" points="0.375,9.366 5.828,15.343 5.305,15.343 0.375,9.94 	"/>
	<polygon clip-path="url(#XMLID_9_)" fill="#EEEDEB" points="0.375,8.788 6.355,15.343 5.828,15.343 0.375,9.366 	"/>
	<polygon clip-path="url(#XMLID_9_)" fill="#EDEBEB" points="0.375,8.21 6.883,15.343 6.355,15.343 0.375,8.788 	"/>
	<polygon clip-path="url(#XMLID_9_)" fill="#ECEAEA" points="0.375,7.632 7.406,15.343 6.883,15.343 0.375,8.21 	"/>
	<polygon clip-path="url(#XMLID_9_)" fill="#EBE9E8" points="0.375,7.054 7.938,15.343 7.406,15.343 0.375,7.632 	"/>
	<polygon clip-path="url(#XMLID_9_)" fill="#EAE9E8" points="0.375,6.479 8.461,15.343 7.938,15.343 0.375,7.054 	"/>
	<polygon clip-path="url(#XMLID_9_)" fill="#E7E6E5" points="0.375,5.901 8.988,15.343 8.461,15.343 0.375,6.479 	"/>
	<polygon clip-path="url(#XMLID_9_)" fill="#E6E5E5" points="0.375,5.323 9.516,15.343 8.988,15.343 0.375,5.901 	"/>
	<polygon clip-path="url(#XMLID_9_)" fill="#E5E4E3" points="0.375,4.749 10.039,15.343 9.516,15.343 0.375,5.323 	"/>
	<polygon clip-path="url(#XMLID_9_)" fill="#E4E3E2" points="0.375,4.171 10.566,15.343 10.039,15.343 0.375,4.749 	"/>
	<polygon clip-path="url(#XMLID_9_)" fill="#E3E2E2" points="0.375,3.593 11.094,15.343 10.566,15.343 0.375,4.171 	"/>
	<polygon clip-path="url(#XMLID_9_)" fill="#E2E1E0" points="0.375,3.019 11.617,15.343 11.094,15.343 0.375,3.593 	"/>
	<polygon clip-path="url(#XMLID_9_)" fill="#E1E0DF" points="0.375,2.44 12.148,15.343 11.617,15.343 0.375,3.019 	"/>
	<polygon clip-path="url(#XMLID_9_)" fill="#E0DFDF" points="0.375,1.862 12.672,15.343 12.148,15.343 0.375,2.44 	"/>
	<polygon clip-path="url(#XMLID_9_)" fill="#DFDEDE" points="0.375,1.284 13.199,15.343 12.672,15.343 0.375,1.862 	"/>
	<polygon clip-path="url(#XMLID_9_)" fill="#DEDDDC" points="0.375,0.726 0.383,0.718 13.727,15.343 13.199,15.343 0.375,1.284 	"/>
	<polygon clip-path="url(#XMLID_9_)" fill="#DDDCDC" points="0.383,0.718 0.672,0.456 14.25,15.343 13.727,15.343 	"/>
	<polygon clip-path="url(#XMLID_9_)" fill="#DCDBDA" points="0.672,0.456 0.758,0.374 1.125,0.374 14.777,15.343 14.25,15.343 	"/>
	<polygon clip-path="url(#XMLID_9_)" fill="#DBDADA" points="1.648,0.374 15.148,15.171 14.961,15.343 14.777,15.343 1.125,0.374 	
		"/>
	<polygon clip-path="url(#XMLID_9_)" fill="#DBD9D9" points="2.176,0.374 15.344,14.812 15.344,14.991 15.148,15.171 1.648,0.374 	
		"/>
	<polygon clip-path="url(#XMLID_9_)" fill="#DAD8D8" points="2.703,0.374 15.344,14.233 15.344,14.812 2.176,0.374 	"/>
	<polygon clip-path="url(#XMLID_9_)" fill="#D9D8D7" points="3.227,0.374 15.344,13.655 15.344,14.233 2.703,0.374 	"/>
	<polygon clip-path="url(#XMLID_9_)" fill="#D8D7D6" points="3.754,0.374 15.344,13.077 15.344,13.655 3.227,0.374 	"/>
	<polygon clip-path="url(#XMLID_9_)" fill="#D7D5D5" points="4.281,0.374 15.344,12.503 15.344,13.077 3.754,0.374 	"/>
	<polygon clip-path="url(#XMLID_9_)" fill="#D6D5D4" points="4.809,0.374 15.344,11.925 15.344,12.503 4.281,0.374 	"/>
	<polygon clip-path="url(#XMLID_9_)" fill="#D5D3D3" points="5.336,0.374 15.344,11.347 15.344,11.925 4.809,0.374 	"/>
	<polygon clip-path="url(#XMLID_9_)" fill="#D4D3D2" points="5.859,0.374 15.344,10.772 15.344,11.347 5.336,0.374 	"/>
	<polygon clip-path="url(#XMLID_9_)" fill="#D3D2D1" points="6.387,0.374 15.344,10.194 15.344,10.772 5.859,0.374 	"/>
	<polygon clip-path="url(#XMLID_9_)" fill="#D2D1D0" points="6.914,0.374 15.344,9.616 15.344,10.194 6.387,0.374 	"/>
	<polygon clip-path="url(#XMLID_9_)" fill="#D2D0CF" points="7.438,0.374 15.344,9.042 15.344,9.616 6.914,0.374 	"/>
	<polygon clip-path="url(#XMLID_9_)" fill="#D1CFCF" points="7.969,0.374 15.344,8.464 15.344,9.042 7.438,0.374 	"/>
	<polygon clip-path="url(#XMLID_9_)" fill="#D0CFCE" points="8.492,0.374 15.344,7.886 15.344,8.464 7.969,0.374 	"/>
	<polygon clip-path="url(#XMLID_9_)" fill="#CFCECD" points="9.02,0.374 15.344,7.308 15.344,7.886 8.492,0.374 	"/>
	<polygon clip-path="url(#XMLID_9_)" fill="#CECDCC" points="9.547,0.374 15.344,6.733 15.344,7.308 9.02,0.374 	"/>
	<polygon clip-path="url(#XMLID_9_)" fill="#CDCCCB" points="10.07,0.374 15.344,6.155 15.344,6.733 9.547,0.374 	"/>
	<polygon clip-path="url(#XMLID_9_)" fill="#CCCBCA" points="10.598,0.374 15.344,5.577 15.344,6.155 10.07,0.374 	"/>
	<polygon clip-path="url(#XMLID_9_)" fill="#CBCACA" points="11.125,0.374 15.344,4.999 15.344,5.577 10.598,0.374 	"/>
	<polygon clip-path="url(#XMLID_9_)" fill="#CAC9C9" points="11.648,0.374 15.344,4.425 15.344,4.999 11.125,0.374 	"/>
	<polygon clip-path="url(#XMLID_9_)" fill="#CAC8C8" points="12.176,0.374 15.344,3.847 15.344,4.425 11.648,0.374 	"/>
	<polygon clip-path="url(#XMLID_9_)" fill="#C9C7C7" points="12.703,0.374 15.344,3.269 15.344,3.847 12.176,0.374 	"/>
	<polygon clip-path="url(#XMLID_9_)" fill="#C8C6C6" points="13.23,0.374 15.344,2.694 15.344,3.269 12.703,0.374 	"/>
	<polygon clip-path="url(#XMLID_9_)" fill="#C7C6C6" points="13.758,0.374 15.344,2.116 15.344,2.694 13.23,0.374 	"/>
	<polygon clip-path="url(#XMLID_9_)" fill="#C5C4C3" points="14.281,0.374 15.344,1.538 15.344,2.116 13.758,0.374 	"/>
	<polygon clip-path="url(#XMLID_9_)" fill="#C4C3C2" points="14.809,0.374 15.344,0.964 15.344,1.538 14.281,0.374 	"/>
	<polygon clip-path="url(#XMLID_9_)" fill="#C3C2C1" points="15.336,0.374 15.344,0.386 15.344,0.964 14.809,0.374 	"/>
	<polygon clip-path="url(#XMLID_9_)" fill="#C2C1C0" points="15.344,0.386 15.336,0.374 15.344,0.374 	"/>
</g>
<path fill="#AEADAE" d="M14.97,7.859c0,3.919-3.189,7.108-7.11,7.108c-3.92,0-7.109-3.189-7.109-7.108
	c0-3.92,3.189-7.109,7.109-7.109C11.78,0.75,14.97,3.939,14.97,7.859z M7.859,0C3.525,0,0,3.526,0,7.859
	c0,4.333,3.525,7.858,7.859,7.858s7.86-3.525,7.86-7.858C15.72,3.526,12.193,0,7.859,0z"/>
<path fill="#010101" d="M5.378,4.932V3.931h5.005v0.88c-0.352,0.374-0.858,0.924-1.518,2.134c-0.595,1.078-1.134,2.299-1.431,4.598
	H6.291c0.065-0.583,0.197-1.089,0.242-1.309C6.73,9.453,6.962,8.749,7.324,7.957C8.16,6.065,8.92,5.251,9.217,4.932H5.378z"/>
</svg>
