<?xml version="1.0" encoding="utf-8"?>
<!-- Generator: Adobe Illustrator 12.0.1, SVG Export Plug-In . SVG Version: 6.00 Build 51448)  -->
<!DOCTYPE svg PUBLIC "-//W3C//DTD SVG 1.1//EN" "http://www.w3.org/Graphics/SVG/1.1/DTD/svg11.dtd" [
	<!ENTITY ns_svg "http://www.w3.org/2000/svg">
	<!ENTITY ns_xlink "http://www.w3.org/1999/xlink">
]>
<svg  version="1.1" id="Layer_1" xmlns="&ns_svg;" xmlns:xlink="&ns_xlink;" width="39.802" height="39.772"
	 viewBox="0 0 39.802 39.772" overflow="visible" enable-background="new 0 0 39.802 39.772" xml:space="preserve">
<linearGradient id="XMLID_34_" gradientUnits="userSpaceOnUse" x1="-77.0532" y1="-129.1733" x2="20.4764" y2="-269.2308" gradientTransform="matrix(0.7071 -0.7071 -0.7071 -0.7071 -37.4263 -129.5991)">
	<stop  offset="0" style="stop-color:#FFFFFF"/>
	<stop  offset="1" style="stop-color:#969897"/>
</linearGradient>
<path fill="url(#XMLID_34_)" stroke="#AFADAE" stroke-width="0.75" d="M36.118,13.255c3.709,3.709,4.368,9.062,1.473,11.957
	L25.212,37.593c-2.896,2.894-8.25,2.236-11.958-1.473l-9.602-9.604c-3.708-3.707-4.367-9.062-1.473-11.958l12.38-12.38
	c2.896-2.896,8.25-2.234,11.957,1.474L36.118,13.255z"/>
<g>
	
		<linearGradient id="XMLID_35_" gradientUnits="userSpaceOnUse" x1="37.2217" y1="5.1494" x2="-0.7783" y2="37.1493" gradientTransform="matrix(1 0 0 -1 0 39.4482)">
		<stop  offset="0" style="stop-color:#FFFFFF"/>
		<stop  offset="0.4831" style="stop-color:#BC6F29"/>
		<stop  offset="1" style="stop-color:#FFFFFF"/>
	</linearGradient>
	<path fill="url(#XMLID_35_)" d="M11.685,26.943c0-0.545,0.128-0.992,0.384-1.345l2.688-3.407H11.35
		c-0.673,0-1.169-0.279-1.488-0.84c-0.32-0.561-0.479-1.113-0.479-1.656c0-0.191,0.039-0.416,0.119-0.672s0.192-0.504,0.336-0.744
		c0.145-0.239,0.312-0.438,0.504-0.6c0.192-0.16,0.4-0.24,0.625-0.24h3.791c-0.16-0.479-0.416-0.896-0.768-1.248
		c-0.352-0.353-0.696-0.705-1.032-1.057c-0.336-0.353-0.632-0.72-0.888-1.104c-0.256-0.385-0.384-0.832-0.384-1.344
		c0-0.672,0.208-1.225,0.624-1.656c0.416-0.431,0.96-0.647,1.632-0.647c0.544,0,0.952,0.063,1.224,0.19
		c0.271,0.129,0.584,0.4,0.937,0.816c0.128,0.16,0.368,0.457,0.72,0.889c0.352,0.433,0.729,0.889,1.128,1.367
		c0.399,0.48,0.784,0.938,1.151,1.368c0.369,0.433,0.633,0.728,0.793,0.888h0.048h0.097l0.239-0.239l3.792-4.513
		c0.288-0.318,0.656-0.56,1.104-0.72c0.031-0.032,0.145-0.048,0.336-0.048h0.385c0.703,0,1.271,0.2,1.703,0.6
		c0.433,0.4,0.648,0.969,0.648,1.705c0,0.287-0.009,0.527-0.023,0.719c-0.018,0.193-0.137,0.416-0.36,0.672l-2.688,3.361h3.793
		c0.224,0,0.439,0.088,0.648,0.264c0.207,0.177,0.391,0.385,0.551,0.624c0.16,0.24,0.289,0.505,0.385,0.792
		c0.097,0.288,0.145,0.527,0.145,0.721c0,0.479-0.191,0.992-0.576,1.536c-0.384,0.544-0.848,0.815-1.392,0.815h-3.456l0.145,0.336
		c0.256,0.32,0.553,0.647,0.889,0.983s0.646,0.681,0.936,1.032c0.289,0.351,0.527,0.729,0.721,1.128
		c0.191,0.399,0.287,0.823,0.287,1.271c0,0.672-0.207,1.225-0.623,1.655c-0.416,0.433-0.977,0.646-1.681,0.646
		c-0.479,0-0.872-0.088-1.177-0.264c-0.303-0.176-0.615-0.455-0.936-0.84c-0.16-0.16-0.424-0.455-0.793-0.888
		c-0.367-0.433-0.752-0.889-1.15-1.368c-0.4-0.479-0.777-0.937-1.129-1.367c-0.352-0.433-0.592-0.729-0.719-0.889
		c-0.064,0.031-0.152,0.104-0.265,0.216c-0.113,0.112-0.185,0.2-0.216,0.265c-0.16,0.16-0.424,0.455-0.793,0.889
		c-0.367,0.433-0.752,0.888-1.151,1.367c-0.4,0.48-0.776,0.937-1.128,1.367c-0.352,0.434-0.592,0.729-0.721,0.89
		c-0.512,0.416-1.088,0.622-1.727,0.622c-0.673,0-1.232-0.223-1.681-0.672C11.908,28.127,11.685,27.583,11.685,26.943z"/>
</g>
<linearGradient id="XMLID_36_" gradientUnits="userSpaceOnUse" x1="20.4722" y1="28.5327" x2="67.0424" y2="-79.2686" gradientTransform="matrix(1 0 0 -1 0 39.4482)">
	<stop  offset="0" style="stop-color:#FFFFFF"/>
	<stop  offset="1" style="stop-color:#D6D8D8"/>
</linearGradient>
<path opacity="0.37" fill="url(#XMLID_36_)" enable-background="new    " d="M31.552,8.386l5.334,5.167c0,0,5.832,5.834,1,12
	l-13,12.666c0,0-2.666,2.834-8.333,0.667C16.552,38.886,16.22,22.886,31.552,8.386z"/>
</svg>
