<?xml version="1.0" encoding="utf-8"?>
<!-- Generator: Adobe Illustrator 12.0.1, SVG Export Plug-In . SVG Version: 6.00 Build 51448)  -->
<!DOCTYPE svg PUBLIC "-//W3C//DTD SVG 1.1//EN" "http://www.w3.org/Graphics/SVG/1.1/DTD/svg11.dtd" [
	<!ENTITY ns_svg "http://www.w3.org/2000/svg">
	<!ENTITY ns_xlink "http://www.w3.org/1999/xlink">
]>
<svg  version="1.1" id="Layer_1" xmlns="&ns_svg;" xmlns:xlink="&ns_xlink;" width="34.804" height="30.276"
	 viewBox="0 0 34.804 30.276" overflow="visible" enable-background="new 0 0 34.804 30.276" xml:space="preserve">
<g>
	<polygon fill="#FFFFFF" stroke="#AFADAF" stroke-linejoin="round" points="0.5,29.776 17.398,0.5 34.304,29.776 	"/>
	<polygon fill="none" stroke="#FFFFFF" stroke-width="1.4677" stroke-linejoin="round" points="2.862,28.402 17.415,3.198 
		31.966,28.402 	"/>
	
		<linearGradient id="XMLID_2_" gradientUnits="userSpaceOnUse" x1="-7.4136" y1="-714.397" x2="47.5844" y2="-748.3956" gradientTransform="matrix(1 0 0 -1 0 -709.4482)">
		<stop  offset="0" style="stop-color:#FFFFFF"/>
		<stop  offset="0.4831" style="stop-color:#B76C29"/>
		<stop  offset="1" style="stop-color:#FFFFFF"/>
	</linearGradient>
	<polygon fill="url(#XMLID_2_)" points="2.862,28.402 17.415,3.198 31.966,28.402 	"/>
	<g>
		<path fill="#FFFFFF" d="M17.468,24.36c0.475,0,0.875,0.16,1.204,0.479c0.329,0.319,0.493,0.719,0.493,1.191
			c0,0.457-0.177,0.858-0.521,1.205c-0.348,0.348-0.75,0.521-1.205,0.521c-0.457,0-0.854-0.17-1.188-0.508
			c-0.336-0.34-0.51-0.733-0.51-1.19c0-0.493,0.164-0.899,0.493-1.22C16.563,24.52,16.974,24.36,17.468,24.36z M16.054,8.668
			c0-0.398,0.131-0.736,0.395-1.013c0.265-0.272,0.596-0.411,0.992-0.411c0.416,0,0.756,0.139,1.021,0.411
			c0.262,0.273,0.395,0.62,0.395,1.04v11.635c0,0.401-0.137,0.734-0.408,1c-0.271,0.267-0.604,0.396-1.006,0.396
			c-0.396,0-0.729-0.139-0.992-0.411c-0.264-0.274-0.395-0.61-0.395-1.013L16.054,8.668L16.054,8.668z"/>
	</g>
</g>
</svg>
